<?xml version="1.0" encoding="UTF-8" standalone="no"?>
<svg
   width="500"
   zoomAndPan="magnify"
   viewBox="0 0 375 374.999991"
   height="500"
   preserveAspectRatio="xMidYMid meet"
   version="1.0"
   id="svg849"
   sodipodi:docname="wiu.svg"
   inkscape:version="1.1.2 (b8e25be8, 2022-02-05)"
   xmlns:inkscape="http://www.inkscape.org/namespaces/inkscape"
   xmlns:sodipodi="http://sodipodi.sourceforge.net/DTD/sodipodi-0.dtd"
   xmlns="http://www.w3.org/2000/svg"
   xmlns:svg="http://www.w3.org/2000/svg">
  <sodipodi:namedview
     id="namedview851"
     pagecolor="#505050"
     bordercolor="#eeeeee"
     borderopacity="1"
     inkscape:pageshadow="0"
     inkscape:pageopacity="0"
     inkscape:pagecheckerboard="0"
     showgrid="false"
     inkscape:zoom="1.25"
     inkscape:cx="250"
     inkscape:cy="250"
     inkscape:window-width="1440"
     inkscape:window-height="847"
     inkscape:window-x="0"
     inkscape:window-y="25"
     inkscape:window-maximized="1"
     inkscape:current-layer="g1139" />
  <defs
     id="defs833">
    <clipPath
       id="4a1467a041">
      <path
         d="M 37.5 25.488281 L 127.5 25.488281 L 127.5 175.488281 L 37.5 175.488281 Z M 37.5 25.488281 "
         clip-rule="nonzero"
         id="path824" />
    </clipPath>
    <clipPath
       id="69a28f786b">
      <path
         d="M 112.5 171 L 257 171 L 257 303 L 112.5 303 Z M 112.5 171 "
         clip-rule="nonzero"
         id="path827" />
    </clipPath>
    <clipPath
       id="8b0970c86f">
      <path
         d="M 171 159.632812 L 197 159.632812 L 197 228 L 171 228 Z M 171 159.632812 "
         clip-rule="nonzero"
         id="path830" />
    </clipPath>
  </defs>
  <g
     id="g1018"
     transform="translate(-3.8984855e-5,15.784175)">
    <g
       id="g1139"
       transform="matrix(2.1477213,0,0,2.1477213,-215.19779,-197.08191)">
      <g
         clip-path="url(#4a1467a041)"
         id="g839"
         transform="matrix(0.41323148,0,0,0.65324537,153.40844,73.338175)">
        <path
           fill="#ffe13e"
           d="M 37.507812,175.48828 68.34375,95.144531 H 40.089844 L 68.34375,25.488281 h 47.32813 l -29.332036,50.71875 41.152346,-0.539062 z m 0,0"
           fill-opacity="1"
           fill-rule="nonzero"
           id="path835" />
        <path
           fill="#ffd13e"
           d="M 37.507812,175.48828 96.238281,86.300781 H 68.882812 l 46.789068,-60.8125 -29.332036,50.71875 41.152346,-0.539062 z m 0,0"
           fill-opacity="1"
           fill-rule="nonzero"
           id="path837" />
      </g>
      <g
         clip-path="url(#69a28f786b)"
         id="g843"
         transform="translate(3.0478877,-49.540691)">
        <path
           fill="#ffd13e"
           d="m 224.47656,171.83984 c -0.26562,-0.17578 -0.54687,-0.32422 -0.84375,-0.4375 -0.29687,-0.11718 -0.60156,-0.19922 -0.91797,-0.25 -0.3125,-0.0508 -0.6289,-0.0664 -0.94922,-0.0469 -0.3164,0.0195 -0.6289,0.0742 -0.93359,0.16015 -0.30859,0.0859 -0.60156,0.20313 -0.88281,0.35547 -0.28125,0.14844 -0.54297,0.32813 -0.78516,0.53516 -0.24219,0.20703 -0.45703,0.4375 -0.64844,0.69141 -0.19531,0.2539 -0.35546,0.52343 -0.48828,0.8164 l -6.05078,13.05469 c -0.21094,0.46094 -0.33984,0.94531 -0.38672,1.44922 -0.0469,0.5039 -0.004,1.0039 0.1211,1.49609 0.125,0.49219 0.33203,0.94922 0.61718,1.36719 0.28125,0.42187 0.62891,0.78516 1.03907,1.08594 1.59375,1.17187 3.10937,2.4414 4.54687,3.79687 1.4375,1.35938 2.78906,2.80078 4.05078,4.32422 1.26172,1.52344 2.42969,3.12109 3.4961,4.78516 1.07031,1.66797 2.03125,3.39062 2.89062,5.17578 0.85547,1.78125 1.60547,3.60937 2.23828,5.48437 0.63672,1.875 1.15235,3.78125 1.55469,5.71875 0.40234,1.9375 0.6875,3.89453 0.85156,5.86719 0.16407,1.96875 0.20703,3.94531 0.12891,5.92188 -0.96484,25.54296 -21.93359,46.21484 -47.5,46.8164 -1.28906,0.0312 -2.57813,0.0117 -3.86328,-0.0586 -1.28516,-0.0703 -2.57031,-0.19531 -3.84766,-0.36719 -1.27734,-0.17187 -2.54297,-0.39453 -3.80469,-0.66797 -1.25781,-0.27344 -2.50781,-0.59765 -3.74218,-0.96875 -1.23047,-0.375 -2.44922,-0.79297 -3.64844,-1.26172 -1.20313,-0.46875 -2.38281,-0.98437 -3.54297,-1.55078 -1.16016,-0.5625 -2.29297,-1.16797 -3.40625,-1.82031 -1.10937,-0.65625 -2.19531,-1.35156 -3.25,-2.08984 -1.05859,-0.73829 -2.08203,-1.51954 -3.07422,-2.33985 -0.99609,-0.82031 -1.95703,-1.67578 -2.88281,-2.57422 -0.92578,-0.89843 -1.81641,-1.82812 -2.66797,-2.79687 -0.85156,-0.96485 -1.66406,-1.96485 -2.4375,-2.9961 -0.76953,-1.03125 -1.50391,-2.09375 -2.19141,-3.18359 -0.6875,-1.08984 -1.33203,-2.20312 -1.93359,-3.34375 -0.59766,-1.14062 -1.15234,-2.30469 -1.66016,-3.48828 -0.50781,-1.1875 -0.96875,-2.39063 -1.3789,-3.60938 -0.41406,-1.22265 -0.77735,-2.45703 -1.08985,-3.70703 -0.3164,-1.25 -0.57812,-2.51172 -0.79296,-3.78515 -0.21485,-1.26953 -0.37891,-2.54688 -0.48829,-3.83203 -0.11328,-1.28125 -0.17578,-2.57032 -0.1875,-3.85938 -0.008,-1.28906 0.0312,-2.57422 0.125,-3.85937 0.0898,-1.28907 0.23438,-2.56641 0.42579,-3.84375 0.19531,-1.27344 0.4375,-2.53907 0.73046,-3.79297 0.29297,-1.25391 0.63672,-2.4961 1.03125,-3.72266 0.39063,-1.23047 0.83204,-2.4375 1.32032,-3.63281 0.48828,-1.19141 1.02343,-2.36328 1.60547,-3.51563 0.57812,-1.14843 1.20703,-2.27343 1.875,-3.375 0.67187,-1.10156 1.38671,-2.17187 2.14062,-3.21875 0.75781,-1.04297 1.55469,-2.05468 2.39063,-3.03515 0.83593,-0.98047 1.70703,-1.92969 2.62109,-2.83985 0.91016,-0.91015 1.85547,-1.78515 2.83594,-2.62109 0.98047,-0.83594 1.99609,-1.63281 3.03906,-2.39063 0.42187,-0.30468 0.78125,-0.67578 1.07031,-1.10937 0.29297,-0.43359 0.5,-0.90625 0.625,-1.41406 0.1211,-0.50782 0.15625,-1.02344 0.0977,-1.54297 -0.0625,-0.51953 -0.20703,-1.01172 -0.44531,-1.48047 l -6.42579,-12.76172 c -0.14062,-0.27734 -0.3125,-0.53906 -0.50781,-0.78516 -0.19531,-0.24218 -0.41406,-0.46484 -0.65625,-0.66015 -0.24609,-0.19922 -0.5039,-0.36719 -0.78515,-0.50781 -0.27735,-0.14454 -0.57032,-0.25391 -0.8711,-0.33204 -0.30469,-0.082 -0.61328,-0.1289 -0.92578,-0.14062 -0.3125,-0.0156 -0.62109,0.004 -0.92969,0.0547 -0.30859,0.0508 -0.60937,0.13672 -0.89843,0.25 -0.29297,0.11718 -0.56641,0.26172 -0.82813,0.43359 -2.42187,1.63281 -4.73437,3.40234 -6.9375,5.3125 -2.20703,1.91406 -4.28516,3.95313 -6.24219,6.12109 -1.95312,2.16797 -3.76953,4.44532 -5.44531,6.83204 -1.67578,2.39062 -3.20312,4.87109 -4.57422,7.44531 -1.375,2.57812 -2.58593,5.22656 -3.63281,7.94922 -1.05078,2.72265 -1.92969,5.5 -2.64062,8.33203 -0.70704,2.83203 -1.24219,5.69531 -1.60157,8.58984 -0.35937,2.89844 -0.54297,5.80469 -0.54687,8.72266 -0.0781,39.03906 31.60156,71.26562 70.65234,71.80859 1.91797,0.0274 3.82813,-0.0195 5.74219,-0.14844 1.91015,-0.125 3.8125,-0.32812 5.70703,-0.60546 1.89453,-0.27735 3.77344,-0.63282 5.64062,-1.0625 1.86719,-0.42579 3.71485,-0.92969 5.53907,-1.50782 1.82422,-0.57812 3.625,-1.22656 5.39843,-1.94922 1.77735,-0.71875 3.51954,-1.51171 5.22657,-2.37109 1.71093,-0.86328 3.38672,-1.78906 5.02343,-2.78516 1.63282,-0.99609 3.22657,-2.05468 4.78125,-3.17968 1.55079,-1.1211 3.05469,-2.30469 4.51172,-3.54688 1.45313,-1.24609 2.85938,-2.54297 4.21094,-3.90234 1.35156,-1.35547 2.64844,-2.76172 3.88672,-4.22266 1.24219,-1.46094 2.41797,-2.96484 3.53906,-4.51953 1.11719,-1.55469 2.17188,-3.15234 3.16406,-4.79297 0.98829,-1.63672 1.91407,-3.3125 2.76954,-5.02734 0.85546,-1.71094 1.64062,-3.45703 2.35937,-5.23438 0.71484,-1.77343 1.35938,-3.57422 1.93359,-5.40234 0.57032,-1.82813 1.07032,-3.67578 1.49219,-5.54297 0.42578,-1.86719 0.77344,-3.75 1.04688,-5.64453 0.27343,-1.89453 0.46875,-3.80078 0.58984,-5.71094 0.12109,-1.91015 0.16406,-3.82422 0.13281,-5.73828 -0.0351,-1.91406 -0.14453,-3.82422 -0.32812,-5.73047 -0.1875,-1.90625 -0.44922,-3.80469 -0.78516,-5.6875 -0.33984,-1.88672 -0.75,-3.7539 -1.23828,-5.60547 -0.48828,-1.85156 -1.04687,-3.68359 -1.68359,-5.48828 -0.63282,-1.80859 -1.33985,-3.58594 -2.11719,-5.33594 -0.77344,-1.75 -1.62109,-3.46875 -2.53516,-5.15234 -0.91406,-1.67969 -1.89453,-3.32422 -2.9414,-4.92969 -1.04688,-1.60156 -2.15235,-3.16406 -3.32422,-4.67968 -1.17188,-1.51563 -2.40235,-2.98047 -3.69141,-4.39844 -1.28515,-1.41406 -2.6289,-2.77735 -4.02734,-4.08594 -1.39844,-1.30859 -2.84766,-2.5625 -4.34375,-3.75391 -1.5,-1.1914 -3.04297,-2.32421 -4.62891,-3.39453 z m 0,0"
           fill-opacity="1"
           fill-rule="nonzero"
           id="path841" />
      </g>
    </g>
  </g>
</svg>
